<svg aria-hidden="true" xmlns="http://www.w3.org/2000/svg" xmlns:xlink="http://www.w3.org/1999/xlink"><symbol viewBox="0 0 25 24" id="arrow-right" xmlns="http://www.w3.org/2000/svg">
<path d="M20 3H5C4.60218 3 4.22064 3.15804 3.93934 3.43934C3.65804 3.72064 3.5 4.10218 3.5 4.5V19.5C3.5 19.8978 3.65804 20.2794 3.93934 20.5607C4.22064 20.842 4.60218 21 5 21H20C20.3978 21 20.7794 20.842 21.0607 20.5607C21.342 20.2794 21.5 19.8978 21.5 19.5V4.5C21.5 4.10218 21.342 3.72064 21.0607 3.43934C20.7794 3.15804 20.3978 3 20 3ZM20 19.5H5V4.5H20V19.5ZM8.96937 9.53063C8.82864 9.38989 8.74958 9.19902 8.74958 9C8.74958 8.80098 8.82864 8.61011 8.96937 8.46937C9.11011 8.32864 9.30098 8.24958 9.5 8.24958C9.69902 8.24958 9.88989 8.32864 10.0306 8.46937L14.75 13.1897V10.5C14.75 10.3011 14.829 10.1103 14.9697 9.96967C15.1103 9.82902 15.3011 9.75 15.5 9.75C15.6989 9.75 15.8897 9.82902 16.0303 9.96967C16.171 10.1103 16.25 10.3011 16.25 10.5V15C16.25 15.1989 16.171 15.3897 16.0303 15.5303C15.8897 15.671 15.6989 15.75 15.5 15.75H11C10.8011 15.75 10.6103 15.671 10.4697 15.5303C10.329 15.3897 10.25 15.1989 10.25 15C10.25 14.8011 10.329 14.6103 10.4697 14.4697C10.6103 14.329 10.8011 14.25 11 14.25H13.6897L8.96937 9.53063Z"/>
</symbol><symbol viewBox="0 0 50 50" id="arrow-up" xmlns="http://www.w3.org/2000/svg">
<path d="M40.668 22.9807C40.5229 23.126 40.3505 23.2412 40.1609 23.3199C39.9712 23.3985 39.7679 23.439 39.5625 23.439C39.3572 23.439 39.1539 23.3985 38.9642 23.3199C38.7745 23.2412 38.6022 23.126 38.457 22.9807L27.0625 11.5842V42.1878C27.0625 42.6022 26.8979 42.9996 26.6049 43.2926C26.3118 43.5856 25.9144 43.7503 25.5 43.7503C25.0856 43.7503 24.6882 43.5856 24.3952 43.2926C24.1021 42.9996 23.9375 42.6022 23.9375 42.1878V11.5842L12.543 22.9807C12.2498 23.2739 11.8521 23.4386 11.4375 23.4386C11.0229 23.4386 10.6252 23.2739 10.332 22.9807C10.0389 22.6875 9.87415 22.2899 9.87415 21.8753C9.87415 21.4606 10.0389 21.063 10.332 20.7698L24.3945 6.70728C24.5397 6.56201 24.712 6.44676 24.9017 6.36813C25.0914 6.2895 25.2947 6.24902 25.5 6.24902C25.7054 6.24902 25.9087 6.2895 26.0984 6.36813C26.288 6.44676 26.4604 6.56201 26.6055 6.70728L40.668 20.7698C40.8133 20.9149 40.9285 21.0872 41.0071 21.2769C41.0858 21.4666 41.1262 21.6699 41.1262 21.8753C41.1262 22.0806 41.0858 22.2839 41.0071 22.4736C40.9285 22.6633 40.8133 22.8356 40.668 22.9807Z"/>
</symbol><symbol viewBox="0 0 36 36" id="arrow-up-right" xmlns="http://www.w3.org/2000/svg">
<path d="M29.25 4.5H6.75C6.15326 4.5 5.58097 4.73705 5.15901 5.15901C4.73705 5.58097 4.5 6.15326 4.5 6.75V29.25C4.5 29.8467 4.73705 30.419 5.15901 30.841C5.58097 31.2629 6.15326 31.5 6.75 31.5H29.25C29.8467 31.5 30.419 31.2629 30.841 30.841C31.2629 30.419 31.5 29.8467 31.5 29.25V6.75C31.5 6.15326 31.2629 5.58097 30.841 5.15901C30.419 4.73705 29.8467 4.5 29.25 4.5ZM29.25 29.25H6.75V6.75H29.25V29.25ZM12.7041 23.2959C12.5995 23.1915 12.5165 23.0674 12.4599 22.9308C12.4033 22.7942 12.3741 22.6478 12.3741 22.5C12.3741 22.3522 12.4033 22.2058 12.4599 22.0692C12.5165 21.9326 12.5995 21.8085 12.7041 21.7041L19.7845 14.625H15.75C15.4516 14.625 15.1655 14.5065 14.9545 14.2955C14.7435 14.0845 14.625 13.7984 14.625 13.5C14.625 13.2016 14.7435 12.9155 14.9545 12.7045C15.1655 12.4935 15.4516 12.375 15.75 12.375H22.5C22.7984 12.375 23.0845 12.4935 23.2955 12.7045C23.5065 12.9155 23.625 13.2016 23.625 13.5V20.25C23.625 20.5484 23.5065 20.8345 23.2955 21.0455C23.0845 21.2565 22.7984 21.375 22.5 21.375C22.2016 21.375 21.9155 21.2565 21.7045 21.0455C21.4935 20.8345 21.375 20.5484 21.375 20.25V16.2155L14.2959 23.2959C14.1915 23.4005 14.0674 23.4835 13.9308 23.5401C13.7942 23.5967 13.6478 23.6259 13.5 23.6259C13.3522 23.6259 13.2058 23.5967 13.0692 23.5401C12.9326 23.4835 12.8085 23.4005 12.7041 23.2959Z"/>
</symbol><symbol viewBox="0 0 24 25" id="download" xmlns="http://www.w3.org/2000/svg">
<path d="M22.5 13.0039V19.0039C22.5 19.4017 22.342 19.7833 22.0607 20.0646C21.7794 20.3459 21.3978 20.5039 21 20.5039H3C2.60218 20.5039 2.22064 20.3459 1.93934 20.0646C1.65804 19.7833 1.5 19.4017 1.5 19.0039V13.0039C1.5 12.6061 1.65804 12.2246 1.93934 11.9432C2.22064 11.6619 2.60218 11.5039 3 11.5039H6.75C6.94891 11.5039 7.13968 11.5829 7.28033 11.7236C7.42098 11.8642 7.5 12.055 7.5 12.2539C7.5 12.4528 7.42098 12.6436 7.28033 12.7842C7.13968 12.9249 6.94891 13.0039 6.75 13.0039H3V19.0039H21V13.0039H17.25C17.0511 13.0039 16.8603 12.9249 16.7197 12.7842C16.579 12.6436 16.5 12.4528 16.5 12.2539C16.5 12.055 16.579 11.8642 16.7197 11.7236C16.8603 11.5829 17.0511 11.5039 17.25 11.5039H21C21.3978 11.5039 21.7794 11.6619 22.0607 11.9432C22.342 12.2246 22.5 12.6061 22.5 13.0039ZM11.4694 12.7845C11.539 12.8543 11.6217 12.9096 11.7128 12.9473C11.8038 12.9851 11.9014 13.0045 12 13.0045C12.0986 13.0045 12.1962 12.9851 12.2872 12.9473C12.3783 12.9096 12.461 12.8543 12.5306 12.7845L17.0306 8.28453C17.1714 8.1438 17.2504 7.95293 17.2504 7.75391C17.2504 7.55488 17.1714 7.36401 17.0306 7.22328C16.8899 7.08255 16.699 7.00349 16.5 7.00349C16.301 7.00349 16.1101 7.08255 15.9694 7.22328L12.75 10.4436V2.50391C12.75 2.30499 12.671 2.11423 12.5303 1.97358C12.3897 1.83292 12.1989 1.75391 12 1.75391C11.8011 1.75391 11.6103 1.83292 11.4697 1.97358C11.329 2.11423 11.25 2.30499 11.25 2.50391V10.4436L8.03063 7.22328C7.88989 7.08255 7.69902 7.00349 7.5 7.00349C7.30098 7.00349 7.11011 7.08255 6.96938 7.22328C6.82864 7.36401 6.74958 7.55488 6.74958 7.75391C6.74958 7.95293 6.82864 8.1438 6.96937 8.28453L11.4694 12.7845ZM18.75 16.0039C18.75 15.7814 18.684 15.5639 18.5604 15.3789C18.4368 15.1939 18.2611 15.0497 18.0555 14.9645C17.85 14.8794 17.6238 14.8571 17.4055 14.9005C17.1873 14.9439 16.9868 15.0511 16.8295 15.2084C16.6722 15.3657 16.565 15.5662 16.5216 15.7844C16.4782 16.0027 16.5005 16.2289 16.5856 16.4344C16.6708 16.64 16.815 16.8157 17 16.9393C17.185 17.0629 17.4025 17.1289 17.625 17.1289C17.9234 17.1289 18.2095 17.0104 18.4205 16.7994C18.6315 16.5884 18.75 16.3023 18.75 16.0039Z"/>
</symbol><symbol viewBox="0 0 32 32" id="facebook" xmlns="http://www.w3.org/2000/svg">
<path d="M16 3C13.4288 3 10.9154 3.76244 8.77759 5.1909C6.63975 6.61935 4.9735 8.64968 3.98956 11.0251C3.00563 13.4006 2.74818 16.0144 3.24979 18.5362C3.7514 21.0579 4.98953 23.3743 6.80761 25.1924C8.62569 27.0105 10.9421 28.2486 13.4638 28.7502C15.9856 29.2518 18.5994 28.9944 20.9749 28.0104C23.3503 27.0265 25.3806 25.3603 26.8091 23.2224C28.2376 21.0846 29 18.5712 29 16C28.9964 12.5533 27.6255 9.24882 25.1884 6.81163C22.7512 4.37445 19.4467 3.00364 16 3ZM17 26.9538V19H20C20.2652 19 20.5196 18.8946 20.7071 18.7071C20.8946 18.5196 21 18.2652 21 18C21 17.7348 20.8946 17.4804 20.7071 17.2929C20.5196 17.1054 20.2652 17 20 17H17V14C17 13.4696 17.2107 12.9609 17.5858 12.5858C17.9609 12.2107 18.4696 12 19 12H21C21.2652 12 21.5196 11.8946 21.7071 11.7071C21.8946 11.5196 22 11.2652 22 11C22 10.7348 21.8946 10.4804 21.7071 10.2929C21.5196 10.1054 21.2652 10 21 10H19C17.9391 10 16.9217 10.4214 16.1716 11.1716C15.4214 11.9217 15 12.9391 15 14V17H12C11.7348 17 11.4804 17.1054 11.2929 17.2929C11.1054 17.4804 11 17.7348 11 18C11 18.2652 11.1054 18.5196 11.2929 18.7071C11.4804 18.8946 11.7348 19 12 19H15V26.9538C12.181 26.6964 9.5697 25.3622 7.7093 23.2287C5.84889 21.0952 4.88259 18.3266 5.01139 15.4988C5.14019 12.671 6.35418 10.0017 8.40084 8.04613C10.4475 6.09057 13.1693 4.9993 16 4.9993C18.8307 4.9993 21.5525 6.09057 23.5992 8.04613C25.6458 10.0017 26.8598 12.671 26.9886 15.4988C27.1174 18.3266 26.1511 21.0952 24.2907 23.2287C22.4303 25.3622 19.819 26.6964 17 26.9538Z"/>
</symbol><symbol viewBox="0 0 24 24" id="info" xmlns="http://www.w3.org/2000/svg">
<path d="M12 2.25C10.0716 2.25 8.18657 2.82183 6.58319 3.89317C4.97982 4.96451 3.73013 6.48726 2.99218 8.26884C2.25422 10.0504 2.06114 12.0108 2.43735 13.9021C2.81355 15.7934 3.74215 17.5307 5.10571 18.8943C6.46928 20.2579 8.20656 21.1865 10.0979 21.5627C11.9892 21.9389 13.9496 21.7458 15.7312 21.0078C17.5127 20.2699 19.0355 19.0202 20.1068 17.4168C21.1782 15.8134 21.75 13.9284 21.75 12C21.7473 9.41498 20.7192 6.93661 18.8913 5.10872C17.0634 3.28084 14.585 2.25273 12 2.25ZM12 20.25C10.3683 20.25 8.77326 19.7661 7.41655 18.8596C6.05984 17.9531 5.00242 16.6646 4.378 15.1571C3.75358 13.6496 3.5902 11.9908 3.90853 10.3905C4.22685 8.79016 5.01259 7.32015 6.16637 6.16637C7.32016 5.01259 8.79017 4.22685 10.3905 3.90852C11.9909 3.59019 13.6497 3.75357 15.1571 4.37799C16.6646 5.00242 17.9531 6.05984 18.8596 7.41655C19.7661 8.77325 20.25 10.3683 20.25 12C20.2475 14.1873 19.3775 16.2843 17.8309 17.8309C16.2843 19.3775 14.1873 20.2475 12 20.25ZM13.5 16.5C13.5 16.6989 13.421 16.8897 13.2803 17.0303C13.1397 17.171 12.9489 17.25 12.75 17.25C12.3522 17.25 11.9706 17.092 11.6893 16.8107C11.408 16.5294 11.25 16.1478 11.25 15.75V12C11.0511 12 10.8603 11.921 10.7197 11.7803C10.579 11.6397 10.5 11.4489 10.5 11.25C10.5 11.0511 10.579 10.8603 10.7197 10.7197C10.8603 10.579 11.0511 10.5 11.25 10.5C11.6478 10.5 12.0294 10.658 12.3107 10.9393C12.592 11.2206 12.75 11.6022 12.75 12V15.75C12.9489 15.75 13.1397 15.829 13.2803 15.9697C13.421 16.1103 13.5 16.3011 13.5 16.5ZM10.5 7.875C10.5 7.6525 10.566 7.43499 10.6896 7.24998C10.8132 7.06498 10.9889 6.92078 11.1945 6.83564C11.4001 6.75049 11.6263 6.72821 11.8445 6.77162C12.0627 6.81502 12.2632 6.92217 12.4205 7.0795C12.5778 7.23684 12.685 7.43729 12.7284 7.65552C12.7718 7.87375 12.7495 8.09995 12.6644 8.30552C12.5792 8.51109 12.435 8.68679 12.25 8.8104C12.065 8.93402 11.8475 9 11.625 9C11.3266 9 11.0405 8.88147 10.8295 8.6705C10.6185 8.45952 10.5 8.17337 10.5 7.875Z"/>
</symbol><symbol viewBox="0 0 26 26" id="instagram" xmlns="http://www.w3.org/2000/svg">
<path d="M13 8.125C12.0358 8.125 11.0933 8.41091 10.2916 8.94659C9.48991 9.48226 8.86506 10.2436 8.49609 11.1344C8.12711 12.0252 8.03057 13.0054 8.21867 13.9511C8.40677 14.8967 8.87107 15.7654 9.55285 16.4471C10.2346 17.1289 11.1033 17.5932 12.0489 17.7813C12.9946 17.9694 13.9748 17.8729 14.8656 17.5039C15.7564 17.1349 16.5177 16.5101 17.0534 15.7084C17.5891 14.9067 17.875 13.9642 17.875 13C17.8737 11.7075 17.3596 10.4683 16.4457 9.55434C15.5317 8.64039 14.2925 8.12634 13 8.125ZM13 16.25C12.3572 16.25 11.7289 16.0594 11.1944 15.7023C10.6599 15.3452 10.2434 14.8376 9.99739 14.2437C9.75141 13.6499 9.68705 12.9964 9.81245 12.366C9.93785 11.7355 10.2474 11.1564 10.7019 10.7019C11.1564 10.2474 11.7355 9.93785 12.366 9.81245C12.9964 9.68705 13.6499 9.75141 14.2437 9.99739C14.8376 10.2434 15.3452 10.6599 15.7023 11.1944C16.0594 11.7289 16.25 12.3572 16.25 13C16.25 13.862 15.9076 14.6886 15.2981 15.2981C14.6886 15.9076 13.862 16.25 13 16.25ZM17.875 2.4375H8.125C6.61708 2.43911 5.17138 3.03885 4.10511 4.10511C3.03885 5.17138 2.43911 6.61708 2.4375 8.125V17.875C2.43911 19.3829 3.03885 20.8286 4.10511 21.8949C5.17138 22.9612 6.61708 23.5609 8.125 23.5625H17.875C19.3829 23.5609 20.8286 22.9612 21.8949 21.8949C22.9612 20.8286 23.5609 19.3829 23.5625 17.875V8.125C23.5609 6.61708 22.9612 5.17138 21.8949 4.10511C20.8286 3.03885 19.3829 2.43911 17.875 2.4375ZM21.9375 17.875C21.9375 18.9524 21.5095 19.9858 20.7476 20.7476C19.9858 21.5095 18.9524 21.9375 17.875 21.9375H8.125C7.04756 21.9375 6.01425 21.5095 5.25238 20.7476C4.49051 19.9858 4.0625 18.9524 4.0625 17.875V8.125C4.0625 7.04756 4.49051 6.01425 5.25238 5.25238C6.01425 4.49051 7.04756 4.0625 8.125 4.0625H17.875C18.9524 4.0625 19.9858 4.49051 20.7476 5.25238C21.5095 6.01425 21.9375 7.04756 21.9375 8.125V17.875ZM19.5 7.71875C19.5 7.9598 19.4285 8.19543 19.2946 8.39585C19.1607 8.59627 18.9703 8.75248 18.7476 8.84473C18.5249 8.93697 18.2799 8.96111 18.0435 8.91408C17.8071 8.86706 17.5899 8.75098 17.4195 8.58054C17.249 8.41009 17.1329 8.19293 17.0859 7.95652C17.0389 7.7201 17.063 7.47505 17.1553 7.25235C17.2475 7.02966 17.4037 6.83931 17.6041 6.7054C17.8046 6.57148 18.0402 6.5 18.2812 6.5C18.6045 6.5 18.9145 6.6284 19.143 6.85696C19.3716 7.08552 19.5 7.39552 19.5 7.71875Z"/>
</symbol><symbol viewBox="0 0 32 32" id="mail" xmlns="http://www.w3.org/2000/svg">
<path d="M28 6H4C3.73478 6 3.48043 6.10536 3.29289 6.29289C3.10536 6.48043 3 6.73478 3 7V24C3 24.5304 3.21071 25.0391 3.58579 25.4142C3.96086 25.7893 4.46957 26 5 26H27C27.5304 26 28.0391 25.7893 28.4142 25.4142C28.7893 25.0391 29 24.5304 29 24V7C29 6.73478 28.8946 6.48043 28.7071 6.29289C28.5196 6.10536 28.2652 6 28 6ZM25.4287 8L16 16.6437L6.57125 8H25.4287ZM27 24H5V9.27375L15.3237 18.7375C15.5082 18.9069 15.7496 19.0008 16 19.0008C16.2504 19.0008 16.4918 18.9069 16.6763 18.7375L27 9.27375V24Z"/>
</symbol><symbol viewBox="0 0 32 32" id="map" xmlns="http://www.w3.org/2000/svg">
<path d="M25 28H18.8175C19.8561 27.0727 20.8355 26.0811 21.75 25.0312C25.1812 21.085 27 16.925 27 13C27 10.0826 25.8411 7.28473 23.7782 5.22183C21.7153 3.15893 18.9174 2 16 2C13.0826 2 10.2847 3.15893 8.22183 5.22183C6.15893 7.28473 5 10.0826 5 13C5 16.925 6.81375 21.085 10.25 25.0312C11.1645 26.0811 12.1439 27.0727 13.1825 28H7C6.73478 28 6.48043 28.1054 6.29289 28.2929C6.10536 28.4804 6 28.7348 6 29C6 29.2652 6.10536 29.5196 6.29289 29.7071C6.48043 29.8946 6.73478 30 7 30H25C25.2652 30 25.5196 29.8946 25.7071 29.7071C25.8946 29.5196 26 29.2652 26 29C26 28.7348 25.8946 28.4804 25.7071 28.2929C25.5196 28.1054 25.2652 28 25 28ZM7 13C7 10.6131 7.94821 8.32387 9.63604 6.63604C11.3239 4.94821 13.6131 4 16 4C18.3869 4 20.6761 4.94821 22.364 6.63604C24.0518 8.32387 25 10.6131 25 13C25 20.1537 18.0662 26.125 16 27.75C13.9338 26.125 7 20.1537 7 13ZM21 13C21 12.0111 20.7068 11.0444 20.1573 10.2221C19.6079 9.3999 18.827 8.75904 17.9134 8.3806C16.9998 8.00216 15.9945 7.90315 15.0245 8.09607C14.0546 8.289 13.1637 8.7652 12.4645 9.46447C11.7652 10.1637 11.289 11.0546 11.0961 12.0245C10.9031 12.9945 11.0022 13.9998 11.3806 14.9134C11.759 15.827 12.3999 16.6079 13.2221 17.1573C14.0444 17.7068 15.0111 18 16 18C17.3261 18 18.5979 17.4732 19.5355 16.5355C20.4732 15.5979 21 14.3261 21 13ZM13 13C13 12.4067 13.1759 11.8266 13.5056 11.3333C13.8352 10.8399 14.3038 10.4554 14.8519 10.2284C15.4001 10.0013 16.0033 9.94189 16.5853 10.0576C17.1672 10.1734 17.7018 10.4591 18.1213 10.8787C18.5409 11.2982 18.8266 11.8328 18.9424 12.4147C19.0581 12.9967 18.9987 13.5999 18.7716 14.1481C18.5446 14.6962 18.1601 15.1648 17.6667 15.4944C17.1734 15.8241 16.5933 16 16 16C15.2044 16 14.4413 15.6839 13.8787 15.1213C13.3161 14.5587 13 13.7956 13 13Z"/>
</symbol><symbol viewBox="0 0 26 26" id="phone" xmlns="http://www.w3.org/2000/svg">
<path d="M22.5845 16.0936L17.7998 13.9496L17.7866 13.9435C17.5383 13.8373 17.2673 13.7946 16.9983 13.8195C16.7293 13.8443 16.4707 13.9358 16.2459 14.0857C16.2195 14.1032 16.194 14.1222 16.1698 14.1426L13.6977 16.25C12.1316 15.4893 10.5148 13.8846 9.75406 12.3388L11.8645 9.82921C11.8848 9.80382 11.9041 9.77843 11.9224 9.75101C12.0691 9.52686 12.1581 9.26993 12.1815 9.00307C12.2049 8.73622 12.1619 8.46772 12.0565 8.22148V8.20929L9.90641 3.41656C9.767 3.09487 9.5273 2.8269 9.22308 2.65264C8.91886 2.47838 8.56644 2.40719 8.21844 2.44968C6.84224 2.63077 5.57901 3.30663 4.6647 4.35103C3.75039 5.39542 3.24751 6.73693 3.25 8.12499C3.25 16.1891 9.81094 22.75 17.875 22.75C19.2631 22.7525 20.6046 22.2496 21.649 21.3353C22.6934 20.421 23.3692 19.1578 23.5503 17.7816C23.5929 17.4337 23.5218 17.0813 23.3478 16.7771C23.1737 16.4729 22.9059 16.2332 22.5845 16.0936ZM17.875 21.125C14.4283 21.1212 11.1239 19.7504 8.68677 17.3132C6.24961 14.8761 4.87876 11.5717 4.875 8.12499C4.87118 7.13322 5.22849 6.17397 5.8802 5.42638C6.53191 4.67879 7.43346 4.19398 8.41648 4.06249C8.41608 4.06655 8.41608 4.07063 8.41648 4.07468L10.5493 8.84812L8.45 11.3608C8.42869 11.3853 8.40934 11.4114 8.39211 11.439C8.23927 11.6735 8.14961 11.9435 8.13182 12.2229C8.11403 12.5023 8.1687 12.7815 8.29055 13.0335C9.2107 14.9155 11.1069 16.7974 13.0091 17.7166C13.263 17.8373 13.5439 17.89 13.8242 17.8698C14.1046 17.8495 14.3749 17.7568 14.6087 17.6008C14.6348 17.5832 14.6599 17.5642 14.6839 17.5439L17.1529 15.4375L21.9263 17.5754C21.9263 17.5754 21.9345 17.5754 21.9375 17.5754C21.8076 18.5598 21.3235 19.4632 20.5758 20.1165C19.8281 20.7698 18.8679 21.1283 17.875 21.125Z"/>
</symbol><symbol viewBox="0 0 32 32" id="telegram" xmlns="http://www.w3.org/2000/svg">
<path d="M29.61 3.27352C29.4551 3.13973 29.2666 3.05075 29.0648 3.01617C28.863 2.98159 28.6556 3.00271 28.465 3.07727L3.1325 12.991C2.77348 13.1306 2.46952 13.3831 2.2664 13.7104C2.06328 14.0377 1.97197 14.4221 2.00624 14.8058C2.0405 15.1895 2.19848 15.5516 2.45639 15.8378C2.71429 16.1239 3.05817 16.3185 3.43625 16.3923L10 17.681V24.9998C9.9987 25.3984 10.1172 25.7883 10.34 26.1188C10.5629 26.4493 10.8799 26.7053 11.25 26.8535C11.6195 27.0044 12.0258 27.0406 12.4162 26.9575C12.8065 26.8743 13.1628 26.6756 13.4387 26.3873L16.6037 23.1048L21.625 27.4998C21.9873 27.8211 22.4545 27.9989 22.9387 27.9998C23.1509 27.9996 23.3618 27.9663 23.5637 27.901C23.8937 27.7963 24.1904 27.607 24.4244 27.352C24.6584 27.0969 24.8215 26.785 24.8975 26.4473L29.9712 4.37477C30.0166 4.17571 30.007 3.96805 29.9433 3.77405C29.8797 3.58005 29.7645 3.40702 29.61 3.27352ZM21.9675 7.77352L10.7687 15.7935L4.56875 14.5773L21.9675 7.77352ZM12 24.9998V19.0648L15.0987 21.7823L12 24.9998ZM22.9412 25.9998L12.6062 16.9373L27.4812 6.27602L22.9412 25.9998Z"/>
</symbol><symbol viewBox="0 0 32 32" id="tiktok" xmlns="http://www.w3.org/2000/svg">
<path d="M28 9C26.4092 8.99835 24.884 8.36567 23.7592 7.24081C22.6343 6.11595 22.0017 4.59079 22 3C22 2.73478 21.8946 2.48043 21.7071 2.29289C21.5196 2.10536 21.2652 2 21 2H16C15.7348 2 15.4804 2.10536 15.2929 2.29289C15.1054 2.48043 15 2.73478 15 3V19.5C14.9998 19.9474 14.8796 20.3865 14.6518 20.7715C14.4241 21.1566 14.0972 21.4735 13.7053 21.6891C13.3133 21.9048 12.8707 22.0114 12.4236 21.9977C11.9764 21.984 11.5411 21.8506 11.1631 21.6114C10.7851 21.3722 10.4782 21.0359 10.2744 20.6376C10.0707 20.2394 9.97747 19.7938 10.0046 19.3472C10.0317 18.9007 10.1782 18.4696 10.4287 18.099C10.6792 17.7283 11.0245 17.4317 11.4288 17.24C11.5997 17.1589 11.7442 17.0309 11.8453 16.8709C11.9464 16.7109 12.0001 16.5255 12 16.3363V11C12.0001 10.8538 11.9681 10.7094 11.9063 10.5769C11.8445 10.4445 11.7544 10.3271 11.6424 10.2332C11.5304 10.1393 11.3992 10.0711 11.2579 10.0334C11.1167 9.9957 10.9689 9.98942 10.825 10.015C6.36375 10.81 3 14.8875 3 19.5C3 22.0196 4.00089 24.4359 5.78249 26.2175C7.56408 27.9991 9.98044 29 12.5 29C15.0196 29 17.4359 27.9991 19.2175 26.2175C20.9991 24.4359 22 22.0196 22 19.5V14.5363C23.8521 15.5026 25.911 16.0049 28 16C28.2652 16 28.5196 15.8946 28.7071 15.7071C28.8946 15.5196 29 15.2652 29 15V10C29 9.73478 28.8946 9.48043 28.7071 9.29289C28.5196 9.10536 28.2652 9 28 9ZM27 13.955C25.0458 13.7818 23.1746 13.0844 21.5837 11.9362C21.4342 11.8287 21.2579 11.7646 21.0743 11.7509C20.8906 11.7373 20.7068 11.7746 20.543 11.8587C20.3792 11.9429 20.2418 12.0706 20.146 12.2279C20.0502 12.3852 19.9997 12.5658 20 12.75V19.5C20 21.4891 19.2098 23.3968 17.8033 24.8033C16.3968 26.2098 14.4891 27 12.5 27C10.5109 27 8.60322 26.2098 7.1967 24.8033C5.79018 23.3968 5 21.4891 5 19.5C5 16.2625 7.08 13.3588 10 12.3V15.7587C9.35356 16.1907 8.83005 16.7827 8.4805 17.4771C8.13094 18.1716 7.96727 18.9447 8.00542 19.7213C8.04358 20.4978 8.28226 21.2512 8.69821 21.908C9.11417 22.5648 9.69319 23.1027 10.3789 23.4691C11.0645 23.8356 11.8334 24.0182 12.6107 23.999C13.3879 23.9799 14.1469 23.7598 14.8137 23.36C15.4805 22.9603 16.0324 22.3946 16.4156 21.7181C16.7987 21.0417 17.0001 20.2775 17 19.5V4H20.0625C20.2874 5.76135 21.0906 7.39822 22.3462 8.65379C23.6018 9.90937 25.2386 10.7126 27 10.9375V13.955Z"/>
</symbol></svg>